<svg id="Component_1_14" data-name="Component 1 – 14" xmlns="http://www.w3.org/2000/svg" width="25" height="31.514" viewBox="0 0 25 31.514">
  <g id="Group_27" data-name="Group 27" transform="translate(-1665 -182)">
    <circle id="Ellipse_3" data-name="Ellipse 3" cx="4" cy="4" r="4" transform="translate(1682 182)" fill="#902fff"/>
  </g>
  <g id="Group_7" data-name="Group 7" transform="translate(-1809.5 -698.136)">
    <g id="Group" transform="translate(1817.464 725.099)">
      <g id="Vector" fill="none" stroke-linejoin="bevel">
        <path d="M3.982,4.551A3.986,3.986,0,0,1,0,.569a.569.569,0,1,1,1.138,0,2.844,2.844,0,1,0,5.689,0,.569.569,0,1,1,1.138,0A3.986,3.986,0,0,1,3.982,4.551Z" stroke="none"/>
        <path d="M 3.981966018676758 4.550848960876465 C 1.786199331283569 4.550848960876465 -6.479899070654938e-07 2.76463770866394 -6.479899070654938e-07 0.5688599348068237 C -6.479899070654938e-07 0.254848837852478 0.2548438012599945 4.403983439260628e-06 0.5688549280166626 4.403983439260628e-06 C 0.8828548789024353 4.403983439260628e-06 1.137699365615845 0.254848837852478 1.137699365615845 0.5688599348068237 C 1.137699365615845 2.136626720428467 2.413077116012573 3.413137674331665 3.981966018676758 3.413137674331665 C 5.55086612701416 3.413137674331665 6.82623291015625 2.136626720428467 6.82623291015625 0.5688599348068237 C 6.82623291015625 0.254848837852478 7.081077098846436 4.403983439260628e-06 7.395077228546143 4.403983439260628e-06 C 7.709088325500488 4.403983439260628e-06 7.963932514190674 0.254848837852478 7.963932514190674 0.5688599348068237 C 7.963932514190674 2.76463770866394 6.177732467651367 4.550848960876465 3.981966018676758 4.550848960876465 Z" stroke="none" fill="#a2a2c2"/>
      </g>
    </g>
    <g id="Group-2" data-name="Group" transform="translate(1809.5 703.483)">
      <g id="Vector-2" data-name="Vector" fill="#a2a2c2" stroke-linejoin="bevel">
        <path d="M21.616,20.479H2.275C1.335,20.479,0,19.713,0,18.772c0-.5.786-.972,1.165-1.3a.584.584,0,0,1,.076-.055,7.934,7.934,0,0,0,2.741-6V7.964A7.973,7.973,0,0,1,11.946,0a1.582,1.582,0,0,1,.292.022.569.569,0,1,1-.221,1.116,6.849,6.849,0,0,0-6.9,6.826v3.459a9.071,9.071,0,0,1-3.2,6.918.525.525,0,0,1-.057.042.569.569,0,0,0,.415.958H21.616a.568.568,0,0,0,.413-.959.622.622,0,0,1-.055-.041,9.071,9.071,0,0,1-3.2-6.918V10.205a.569.569,0,0,1,1.138,0v1.217a7.934,7.934,0,0,0,2.743,6,.5.5,0,0,1,.073.052c.38.325,1.166.8,1.166,1.3C23.892,19.713,22.557,20.479,21.616,20.479Z" stroke="none"/>
        <path d="M 21.61639213562012 20.47866821289063 L 2.275404691696167 20.47866821289063 C 1.334524750709534 20.47866821289063 4.722696758108214e-06 19.7130012512207 4.722696758108214e-06 18.77212142944336 C 4.722696758108214e-06 18.27266883850098 0.7861514091491699 17.80050849914551 1.165004730224609 17.47513580322266 C 1.188898086547852 17.45465469360352 1.215071439743042 17.43645477294922 1.241231441497803 17.4205207824707 C 2.984204769134521 15.90737533569336 3.981964826583862 13.72525501251221 3.981964826583862 11.42254829406738 L 3.981964826583862 7.963921546936035 C 3.981964826583862 3.572388410568237 7.555498123168945 1.726786308609007e-06 11.94589805603027 1.726786308609007e-06 C 12.03691101074219 1.726786308609007e-06 12.14727115631104 0.003415060229599476 12.23828506469727 0.02161506004631519 C 12.54660511016846 0.08192172646522522 12.74684429168701 0.3811350464820862 12.68653774261475 0.6894550323486328 C 12.62737846374512 0.9977614879608154 12.32703304290771 1.198002457618713 12.017578125 1.137708425521851 C 8.181231498718262 1.137708425521851 5.11967134475708 4.200401782989502 5.11967134475708 7.963921546936035 L 5.11967134475708 11.42254829406738 C 5.11967134475708 14.08818817138672 3.952391386032104 16.60933494567871 1.917031407356262 18.34092140197754 C 1.898831367492676 18.35570907592773 1.880631446838379 18.37050819396973 1.860151410102844 18.38301467895508 C 1.762311339378357 18.4876823425293 1.706551432609558 18.6264820098877 1.706551432609558 18.77210807800293 C 1.706551432609558 19.08612251281738 1.962538003921509 19.34096145629883 2.275404691696167 19.34096145629883 L 21.61639213562012 19.34096145629883 C 21.92925834655762 19.34096145629883 22.18524551391602 19.08612251281738 22.18524551391602 18.77210807800293 C 22.18524551391602 18.6264820098877 22.12949752807617 18.48654747009277 22.02937889099121 18.38188171386719 C 22.01003074645996 18.36936187744141 21.99297714233398 18.35570907592773 21.97476387023926 18.34092140197754 C 19.93941879272461 16.60933494567871 18.77212524414063 14.08818817138672 18.77212524414063 11.42254829406738 L 18.77212524414063 10.20520210266113 C 18.77212524414063 9.891201972961426 19.0269775390625 9.636348724365234 19.34097862243652 9.636348724365234 C 19.65499114990234 9.636348724365234 19.90983200073242 9.891201972961426 19.90983200073242 10.20520210266113 L 19.90983200073242 11.42254829406738 C 19.90983200073242 13.72753524780273 20.90873718261719 15.90965461730957 22.65284538269043 17.42280197143555 C 22.67900466918945 17.43872261047363 22.70403099060059 17.45578765869141 22.72565841674805 17.47513580322266 C 23.10564422607422 17.80050849914551 23.89179229736328 18.27266883850098 23.89179229736328 18.77212142944336 C 23.89179229736328 19.7130012512207 22.55727195739746 20.47866821289063 21.61639213562012 20.47866821289063 Z" stroke="none" fill="#a2a2c2"/>
      </g>
    </g>
  </g>
</svg>
