<svg xmlns="http://www.w3.org/2000/svg" width="27.933" height="22.658" viewBox="0 0 27.933 22.658">
  <g id="Group_602" data-name="Group 602" transform="translate(27.933 22.658) rotate(180)">
    <path id="Path_63" data-name="Path 63" d="M0,2.807V0H21.064V2.807Z" transform="translate(6.869 0.815)" fill="#111026"/>
    <path id="Path_64" data-name="Path 64" d="M20.971,2.819H0V0H20.971Z" transform="translate(6.931 9.938)" fill="#111026"/>
    <path id="Path_65" data-name="Path 65" d="M21.064,0V2.807H0V0Z" transform="translate(6.865 19.042)" fill="#111026"/>
    <path id="Path_66" data-name="Path 66" d="M4.512,2.285c-.218,1.365-.96,2.247-2.377,2.174A2.075,2.075,0,0,1,.006,2.087,2.062,2.062,0,0,1,2.237,0C3.658.014,4.36.907,4.512,2.285Z" transform="translate(0)" fill="#111026"/>
    <path id="Path_67" data-name="Path 67" d="M4.508,2.15c-.132,1.384-.829,2.3-2.246,2.312A2.072,2.072,0,0,1,0,2.22,2.061,2.061,0,0,1,2.1,0C3.521-.073,4.272.791,4.508,2.15Z" transform="translate(0.003 9.097)" fill="#111026"/>
    <path id="Path_68" data-name="Path 68" d="M4.507,2.15c-.14,1.375-.835,2.294-2.246,2.309A2.076,2.076,0,0,1,0,2.217,2.06,2.06,0,0,1,2.1,0C3.517-.073,4.266.794,4.507,2.15Z" transform="translate(0.005 18.198)" fill="#111026"/>
  </g>
</svg>
