<svg xmlns="http://www.w3.org/2000/svg" width="27.099" height="27.099" viewBox="0 0 27.099 27.099">
  <g id="Group_599" data-name="Group 599" transform="translate(9.572) rotate(45)">
    <g id="Group_113" data-name="Group 113" transform="translate(0 0)">
      <path id="Path_76" data-name="Path 76" d="M24.759,1.55a.563.563,0,0,1,.028.172V11.907a.277.277,0,0,0-.05.073,1.893,1.893,0,0,1-2,1.555q-8.068,0-16.136-.005a1.293,1.293,0,0,1-.789-.326Q3.122,10.529.443,7.841a1.515,1.515,0,0,1,0-2.142Q3.1,3.041,5.755.379A1.287,1.287,0,0,1,6.669,0q6.745.009,13.49,0c.9,0,1.8-.01,2.707,0A1.861,1.861,0,0,1,24.636,1.2,3.184,3.184,0,0,1,24.759,1.55Z" transform="translate(0 0)" fill="#111026"/>
    </g>
    <circle id="Ellipse_3" data-name="Ellipse 3" cx="1.485" cy="1.485" r="1.485" transform="translate(4.266 5.283)" fill="#fefefe"/>
  </g>
</svg>
