<svg id="Group_564" data-name="Group 564" xmlns="http://www.w3.org/2000/svg" width="19.65" height="13.733" viewBox="0 0 19.65 13.733">
  <path id="Path_74" data-name="Path 74" d="M387.824,267.122c4.416.226,7.707,2.141,9.716,6.044a2.078,2.078,0,0,1,.032,1.651,10.761,10.761,0,0,1-19.333.012,2.08,2.08,0,0,1,.02-1.651A10.717,10.717,0,0,1,387.824,267.122Zm.065,2.325a4.577,4.577,0,1,0,4.589,4.563A4.588,4.588,0,0,0,387.889,269.447Z" transform="translate(-378.079 -267.122)" fill="#111026"/>
  <path id="Path_75" data-name="Path 75" d="M414.512,288.108a2.738,2.738,0,1,1-2.71-2.793A2.765,2.765,0,0,1,414.512,288.108Z" transform="translate(-401.951 -281.151)" fill="#111026"/>
</svg>
