<svg id="Group_576" data-name="Group 576" xmlns="http://www.w3.org/2000/svg" width="18.175" height="29" viewBox="0 0 18.175 29">
  <path id="Path_13" data-name="Path 13" d="M283.577,255.679c.025.437-.267.525-.483.655q-2.78,1.673-5.567,3.333c-.8.48-1.613.949-2.408,1.441a1.014,1.014,0,0,1-1.185.025q-4.084-2.463-8.195-4.882c-.628-.37-.218-.731-.018-1.057,1.706-2.774,3.431-5.537,5.146-8.306q1.6-2.59,3.194-5.188c.4-.657.473-.653.885.007q3.692,5.914,7.387,11.828C282.783,254.258,283.19,255.009,283.577,255.679Z" transform="translate(-265.404 -241.21)" fill="#a2a2c2"/>
  <path id="Path_14" data-name="Path 14" d="M265.5,276.1a17.4,17.4,0,0,1,3.748,1.963q2.5,1.439,4.962,2.941a.724.724,0,0,0,.881-.066c2.431-1.643,5.083-2.917,7.543-4.51a1.433,1.433,0,0,1,.916-.388c.128.2-.018.307-.11.435q-3.986,5.525-7.964,11.054c-.9,1.262-.895,1.287-1.748.1q-4.005-5.557-7.991-11.128C265.644,276.374,265.575,276.233,265.5,276.1Z" transform="translate(-265.453 -259.495)" fill="#a2a2c2"/>
</svg>
