<svg id="Group_107" data-name="Group 107" xmlns="http://www.w3.org/2000/svg" width="24.502" height="27.146" viewBox="0 0 24.502 27.146">
  <path id="Path_61" data-name="Path 61" d="M385.685,271.416a4.061,4.061,0,0,1,5.814-3.726,2.339,2.339,0,0,0,2.472-.164q3.239-1.963,6.546-3.816a2.344,2.344,0,0,0,1.382-2.081,4.036,4.036,0,0,1,5.01-3.67,4.209,4.209,0,0,1,3.119,5.3,4.064,4.064,0,0,1-5.506,2.641,2.741,2.741,0,0,0-2.93.254c-2.156,1.315-4.369,2.535-6.531,3.841-1.506.91-1.526,2.046-.038,2.941,2.453,1.475,4.954,2.87,7.414,4.334a1.7,1.7,0,0,0,1.718.044c2.559-1.059,4.9-.061,5.713,2.359a4.042,4.042,0,0,1-2.934,5.209c-2.359.615-4.589-.973-4.994-3.7a2.279,2.279,0,0,0-1.25-1.823c-2.289-1.312-4.579-2.623-6.834-3.99a2.2,2.2,0,0,0-2.322-.106A4.073,4.073,0,0,1,385.685,271.416Z" transform="translate(-385.685 -257.872)" fill="#111026"/>
</svg>
