<svg id="Group_582" data-name="Group 582" xmlns="http://www.w3.org/2000/svg" width="21.162" height="18.5" viewBox="0 0 21.162 18.5">
  <path id="Path_81" data-name="Path 81" d="M384.2,276.96l1.443-1.237c3.537,2.518,6.944,2.609,9.711.233A7.19,7.19,0,0,0,389.2,263.45a7.1,7.1,0,0,0-5.691,6.958h3.586l-4.719,3.919-3.6-3.778h2.573a9.709,9.709,0,0,1,2.867-6.692,9.256,9.256,0,1,1,10.9,14.744A9.031,9.031,0,0,1,384.2,276.96Z" transform="translate(-378.776 -261.234)" fill="#111026"/>
  <path id="Path_82" data-name="Path 82" d="M426.184,288l-.745,1.217c-1.347-.8-2.672-1.549-3.959-2.366a1.154,1.154,0,0,1-.413-.834c-.041-1.451-.019-2.9-.019-4.445h1.544c0,1.086.046,2.189-.016,3.287a1.411,1.411,0,0,0,.868,1.52C424.354,286.846,425.211,287.417,426.184,288Z" transform="translate(-410.182 -276.347)" fill="#111026"/>
</svg>
