<svg xmlns="http://www.w3.org/2000/svg" width="23.493" height="12.888" viewBox="0 0 23.493 12.888">
  <path id="Path_69" data-name="Path 69" d="M392.648,292.751a2.1,2.1,0,0,1-2.2-1.877c-.245-1.644-1.612-2.344-2.666-3.284-.429-.383-1.005-.082-1.416.331-1.246,1.253-2.491,2.508-3.748,3.749a2.188,2.188,0,0,0-.544,1.305,2.2,2.2,0,0,1-4.373-.164,2.083,2.083,0,0,1,1.876-2.317,2.753,2.753,0,0,0,1.683-.925q1.255-1.275,2.533-2.528a4.055,4.055,0,0,0,1.44-2.421,1.91,1.91,0,0,1,2.145-1.582,1.932,1.932,0,0,1,2.07,1.689c.2,1.689,1.577,2.365,2.561,3.373a.986.986,0,0,0,1.436-.138c1.009-.99,2-2,3-3a1.887,1.887,0,0,0,.363-1.106,2.205,2.205,0,1,1,2.508,2.51c-1.476.313-4.149,3.039-4.507,4.574A2.168,2.168,0,0,1,392.648,292.751Z" transform="translate(-377.696 -281.971)" fill="#111026"/>
</svg>
