<svg xmlns="http://www.w3.org/2000/svg" width="15.26" height="15.304" viewBox="0 0 15.26 15.304">
  <g id="Group_558" data-name="Group 558" transform="translate(-384.975 -261.395)">
    <path id="Path_675" data-name="Path 675" d="M384.983,287.136c0-1.01-.024-1.889.015-2.765a1.21,1.21,0,0,1,.318-.734c2.985-3.01,5.987-6,8.931-8.946l3.136,3.2c-.115.121-.365.4-.628.66-2.548,2.551-5.124,5.076-7.631,7.666a2.561,2.561,0,0,1-2.309.936A16.335,16.335,0,0,0,384.983,287.136Zm10.235-9.442-.821-.716c-2.535,2.525-5.034,5-7.507,7.506-.179.181-.169.549-.311,1.062.52-.165.912-.172,1.115-.371C390.181,282.734,392.641,280.266,395.218,277.694Z" transform="translate(0 -10.471)" fill="#a2a2c2"/>
    <path id="Path_676" data-name="Path 676" d="M437,266.382l-3.372-3.4,2.252-1.583,2.672,2.621Z" transform="translate(-38.317)" fill="#a2a2c2"/>
  </g>
</svg>
