<svg xmlns="http://www.w3.org/2000/svg" width="25.202" height="19.144" viewBox="0 0 25.202 19.144">
  <path id="Path_677" data-name="Path 677" d="M25.2,1.173v16.8a3.3,3.3,0,0,1-2.765,1.17q-7.19-.066-14.381,0a3.14,3.14,0,0,1-2.922-1.578C3.454,14.969,1.715,12.41,0,9.836V9.311C1.715,6.735,3.457,4.176,5.132,1.574A3.106,3.106,0,0,1,8.048,0c4.8.054,9.592.046,14.388,0A3.3,3.3,0,0,1,25.2,1.173ZM9.5,10.96A1.394,1.394,0,0,0,10.8,9.6,1.273,1.273,0,0,0,9.512,8.226,1.277,1.277,0,0,0,8.1,9.61C8.112,10.406,8.666,10.84,9.5,10.96Zm5.211,0c.786-.127,1.341-.56,1.34-1.36a1.278,1.278,0,0,0-1.423-1.37,1.273,1.273,0,0,0-1.276,1.39A1.38,1.38,0,0,0,14.71,10.955Zm6.623-1.395c-.127-.788-.565-1.34-1.364-1.337A1.278,1.278,0,0,0,18.6,9.653,1.273,1.273,0,0,0,20,10.925,1.378,1.378,0,0,0,21.333,9.561Z" transform="translate(25.202 19.144) rotate(180)" fill="#111026"/>
</svg>
